<mxfile host="app.diagrams.net" modified="2023-08-18T05:35:58.553Z" agent="Mozilla/5.0 (Macintosh; Intel Mac OS X 10_15_7) AppleWebKit/537.36 (KHTML, like Gecko) Chrome/115.0.0.0 Safari/537.36 Edg/115.0.1901.203" etag="aKnDZNU8VrBuFw2not_w" version="21.6.8" type="device">
  <diagram name="第 1 页" id="rVXqHKtSRqtbMVavCmj6">
    <mxGraphModel dx="1659" dy="950" grid="1" gridSize="10" guides="1" tooltips="1" connect="1" arrows="1" fold="1" page="1" pageScale="1" pageWidth="827" pageHeight="1169" math="0" shadow="0">
      <root>
        <mxCell id="0" />
        <mxCell id="1" parent="0" />
        <mxCell id="XNVXYnox-Z8crDhmuB8B-4" style="edgeStyle=orthogonalEdgeStyle;rounded=0;orthogonalLoop=1;jettySize=auto;html=1;exitX=1;exitY=0.5;exitDx=0;exitDy=0;" parent="1" source="XNVXYnox-Z8crDhmuB8B-1" target="XNVXYnox-Z8crDhmuB8B-3" edge="1">
          <mxGeometry relative="1" as="geometry" />
        </mxCell>
        <mxCell id="XNVXYnox-Z8crDhmuB8B-1" value="SourceOperator" style="ellipse;whiteSpace=wrap;html=1;fillColor=#dae8fc;strokeColor=#6c8ebf;fillStyle=auto;" parent="1" vertex="1">
          <mxGeometry x="13" y="250" width="120" height="80" as="geometry" />
        </mxCell>
        <mxCell id="XNVXYnox-Z8crDhmuB8B-6" value="" style="edgeStyle=orthogonalEdgeStyle;rounded=0;orthogonalLoop=1;jettySize=auto;html=1;" parent="1" source="XNVXYnox-Z8crDhmuB8B-3" target="XNVXYnox-Z8crDhmuB8B-5" edge="1">
          <mxGeometry relative="1" as="geometry" />
        </mxCell>
        <mxCell id="D7JOQi28TTwBXhsUgJxt-1" value="...." style="edgeLabel;html=1;align=center;verticalAlign=middle;resizable=0;points=[];" vertex="1" connectable="0" parent="XNVXYnox-Z8crDhmuB8B-6">
          <mxGeometry x="-0.1215" y="-1" relative="1" as="geometry">
            <mxPoint as="offset" />
          </mxGeometry>
        </mxCell>
        <mxCell id="XNVXYnox-Z8crDhmuB8B-3" value="Operator" style="ellipse;whiteSpace=wrap;html=1;" parent="1" vertex="1">
          <mxGeometry x="243" y="250" width="120" height="80" as="geometry" />
        </mxCell>
        <mxCell id="XNVXYnox-Z8crDhmuB8B-8" value="" style="edgeStyle=orthogonalEdgeStyle;rounded=0;orthogonalLoop=1;jettySize=auto;html=1;" parent="1" source="XNVXYnox-Z8crDhmuB8B-5" target="XNVXYnox-Z8crDhmuB8B-7" edge="1">
          <mxGeometry relative="1" as="geometry" />
        </mxCell>
        <mxCell id="XNVXYnox-Z8crDhmuB8B-5" value="Operator" style="ellipse;whiteSpace=wrap;html=1;" parent="1" vertex="1">
          <mxGeometry x="473" y="250" width="120" height="80" as="geometry" />
        </mxCell>
        <mxCell id="XNVXYnox-Z8crDhmuB8B-7" value="SinkOperator" style="ellipse;whiteSpace=wrap;html=1;fillColor=#f8cecc;strokeColor=#b85450;" parent="1" vertex="1">
          <mxGeometry x="690" y="250" width="120" height="80" as="geometry" />
        </mxCell>
        <mxCell id="XNVXYnox-Z8crDhmuB8B-9" value="pull" style="text;html=1;strokeColor=none;fillColor=none;align=center;verticalAlign=middle;whiteSpace=wrap;rounded=0;" parent="1" vertex="1">
          <mxGeometry x="116" y="270" width="60" height="20" as="geometry" />
        </mxCell>
        <mxCell id="XNVXYnox-Z8crDhmuB8B-10" value="push" style="text;html=1;strokeColor=none;fillColor=none;align=center;verticalAlign=middle;whiteSpace=wrap;rounded=0;" parent="1" vertex="1">
          <mxGeometry x="192" y="270" width="60" height="20" as="geometry" />
        </mxCell>
        <mxCell id="XNVXYnox-Z8crDhmuB8B-11" value="pull" style="text;html=1;strokeColor=none;fillColor=none;align=center;verticalAlign=middle;whiteSpace=wrap;rounded=0;" parent="1" vertex="1">
          <mxGeometry x="578" y="270" width="60" height="20" as="geometry" />
        </mxCell>
        <mxCell id="XNVXYnox-Z8crDhmuB8B-12" value="pull" style="text;html=1;strokeColor=none;fillColor=none;align=center;verticalAlign=middle;whiteSpace=wrap;rounded=0;" parent="1" vertex="1">
          <mxGeometry x="348" y="270" width="60" height="20" as="geometry" />
        </mxCell>
        <mxCell id="XNVXYnox-Z8crDhmuB8B-14" value="push" style="text;html=1;strokeColor=none;fillColor=none;align=center;verticalAlign=middle;whiteSpace=wrap;rounded=0;" parent="1" vertex="1">
          <mxGeometry x="423" y="270" width="60" height="20" as="geometry" />
        </mxCell>
        <mxCell id="XNVXYnox-Z8crDhmuB8B-15" value="push" style="text;html=1;strokeColor=none;fillColor=none;align=center;verticalAlign=middle;whiteSpace=wrap;rounded=0;" parent="1" vertex="1">
          <mxGeometry x="643" y="270" width="60" height="20" as="geometry" />
        </mxCell>
        <mxCell id="D7JOQi28TTwBXhsUgJxt-4" value="" style="rounded=1;whiteSpace=wrap;html=1;fillColor=none;dashed=1;" vertex="1" parent="1">
          <mxGeometry x="4" y="200" width="820" height="160" as="geometry" />
        </mxCell>
        <mxCell id="D7JOQi28TTwBXhsUgJxt-6" value="Pipeline Stream" style="text;html=1;strokeColor=none;fillColor=#CCE5FF;align=center;verticalAlign=middle;whiteSpace=wrap;rounded=0;fillStyle=hatch;" vertex="1" parent="1">
          <mxGeometry x="340" y="370" width="100" height="20" as="geometry" />
        </mxCell>
      </root>
    </mxGraphModel>
  </diagram>
</mxfile>
